<svg width="307" height="59" viewBox="0 0 307 59" fill="none" xmlns="http://www.w3.org/2000/svg">
<path d="M85.8099 15.6229H91.4244L95.7201 42H91.5751L90.8215 36.7623V36.8376H86.1113L85.3577 42H81.5142L85.8099 15.6229ZM90.3316 33.2579L88.4852 20.2201H88.4099L86.6012 33.2579H90.3316ZM95.5711 15.6229H99.7538L102.467 36.084H102.542L105.255 15.6229H109.061L105.067 42H99.5654L95.5711 15.6229ZM113.188 15.6229H118.802L123.098 42H118.953L118.199 36.7623V36.8376H113.489L112.736 42H108.892L113.188 15.6229ZM117.71 33.2579L115.863 20.2201H115.788L113.979 33.2579H117.71ZM125.109 15.6229H131.44C133.499 15.6229 135.044 16.1756 136.074 17.2809C137.104 18.3862 137.619 20.0065 137.619 22.1418V35.4811C137.619 37.6164 137.104 39.2367 136.074 40.342C135.044 41.4473 133.499 42 131.44 42H125.109V15.6229ZM131.364 38.2318C132.042 38.2318 132.557 38.0309 132.909 37.6289C133.286 37.227 133.474 36.5739 133.474 35.6695V21.9534C133.474 21.0491 133.286 20.3959 132.909 19.994C132.557 19.592 132.042 19.3911 131.364 19.3911H129.254V38.2318H131.364ZM143.547 15.6229H149.161L153.457 42H149.312L148.558 36.7623V36.8376H143.848L143.094 42H139.251L143.547 15.6229ZM148.068 33.2579L146.222 20.2201H146.147L144.338 33.2579H148.068ZM161.503 15.6229H167.645C169.78 15.6229 171.338 16.1253 172.317 17.1302C173.297 18.1099 173.787 19.6297 173.787 21.6896V23.31C173.787 26.0481 172.882 27.7815 171.074 28.51V28.5854C172.079 28.8868 172.782 29.5023 173.184 30.4318C173.611 31.3612 173.825 32.6047 173.825 34.1622V38.7971C173.825 39.5507 173.85 40.1662 173.9 40.6435C173.95 41.0956 174.076 41.5478 174.277 42H170.056C169.906 41.5729 169.805 41.171 169.755 40.7942C169.705 40.4174 169.68 39.7391 169.68 38.7594V33.9361C169.68 32.7303 169.479 31.8888 169.077 31.4115C168.7 30.9342 168.034 30.6955 167.08 30.6955H165.648V42H161.503V15.6229ZM167.155 26.9274C167.984 26.9274 168.599 26.7139 169.001 26.2868C169.428 25.8597 169.642 25.1438 169.642 24.1389V22.1041C169.642 21.1495 169.466 20.4587 169.114 20.0317C168.788 19.6046 168.26 19.3911 167.532 19.3911H165.648V26.9274H167.155ZM176.7 15.6229H188.005V19.3911H180.845V26.3622H186.535V30.1303H180.845V38.2318H188.005V42H176.7V15.6229ZM195.851 42.3768C193.842 42.3768 192.322 41.8116 191.292 40.6811C190.262 39.5256 189.747 37.8802 189.747 35.7449V34.2376H193.666V36.0463C193.666 37.7545 194.382 38.6087 195.814 38.6087C196.517 38.6087 197.045 38.4077 197.396 38.0058C197.773 37.5787 197.962 36.9004 197.962 35.971C197.962 34.8656 197.71 33.8985 197.208 33.0695C196.706 32.2154 195.776 31.198 194.42 30.0173C192.711 28.51 191.518 27.1535 190.84 25.9477C190.162 24.7167 189.822 23.3351 189.822 21.8027C189.822 19.7176 190.35 18.1099 191.405 16.9795C192.46 15.8239 193.992 15.2461 196.002 15.2461C197.987 15.2461 199.481 15.8239 200.486 16.9795C201.516 18.1099 202.031 19.7428 202.031 21.8781V22.9708H198.112V21.6143C198.112 20.7099 197.936 20.0568 197.585 19.6548C197.233 19.2278 196.718 19.0143 196.04 19.0143C194.658 19.0143 193.967 19.8558 193.967 21.5389C193.967 22.4935 194.219 23.3853 194.721 24.2143C195.249 25.0433 196.191 26.0481 197.547 27.2288C199.28 28.7361 200.474 30.1052 201.127 31.3361C201.78 32.5671 202.107 34.0115 202.107 35.6695C202.107 37.8299 201.566 39.4879 200.486 40.6435C199.431 41.799 197.886 42.3768 195.851 42.3768ZM207.724 19.3911H203.39V15.6229H216.202V19.3911H211.869V42H207.724V19.3911ZM219.682 15.6229H225.297L229.593 42H225.448L224.694 36.7623V36.8376H219.984L219.23 42H215.387L219.682 15.6229ZM224.204 33.2579L222.358 20.2201H222.282L220.474 33.2579H224.204ZM237.559 42.3768C235.549 42.3768 234.017 41.8116 232.962 40.6811C231.907 39.5256 231.379 37.8802 231.379 35.7449V15.6229H235.524V36.0463C235.524 36.9507 235.7 37.6038 236.052 38.0058C236.429 38.4077 236.956 38.6087 237.634 38.6087C238.313 38.6087 238.828 38.4077 239.179 38.0058C239.556 37.6038 239.745 36.9507 239.745 36.0463V15.6229H243.739V35.7449C243.739 37.8802 243.211 39.5256 242.156 40.6811C241.101 41.8116 239.569 42.3768 237.559 42.3768ZM246.691 15.6229H252.833C254.968 15.6229 256.526 16.1253 257.506 17.1302C258.485 18.1099 258.975 19.6297 258.975 21.6896V23.31C258.975 26.0481 258.071 27.7815 256.262 28.51V28.5854C257.267 28.8868 257.97 29.5023 258.372 30.4318C258.799 31.3612 259.013 32.6047 259.013 34.1622V38.7971C259.013 39.5507 259.038 40.1662 259.088 40.6435C259.138 41.0956 259.264 41.5478 259.465 42H255.245C255.094 41.5729 254.993 41.171 254.943 40.7942C254.893 40.4174 254.868 39.7391 254.868 38.7594V33.9361C254.868 32.7303 254.667 31.8888 254.265 31.4115C253.888 30.9342 253.222 30.6955 252.268 30.6955H250.836V42H246.691V15.6229ZM252.343 26.9274C253.172 26.9274 253.788 26.7139 254.19 26.2868C254.617 25.8597 254.83 25.1438 254.83 24.1389V22.1041C254.83 21.1495 254.654 20.4587 254.303 20.0317C253.976 19.6046 253.448 19.3911 252.72 19.3911H250.836V26.9274H252.343ZM265.092 15.6229H270.706L275.002 42H270.857L270.103 36.7623V36.8376H265.393L264.639 42H260.796L265.092 15.6229ZM269.613 33.2579L267.767 20.2201H267.692L265.883 33.2579H269.613ZM277.013 15.6229H282.213L286.245 31.4115H286.32V15.6229H290.013V42H285.755L280.781 22.7447H280.706V42H277.013V15.6229ZM296.334 19.3911H292.001V15.6229H304.813V19.3911H300.479V42H296.334V19.3911Z" fill="white"/>
<path d="M1.5342 1.06358C1.73499 2.03809 2.43304 4.1532 4.86142 6.58159C6.19441 7.91457 8.02357 8.92376 9.97153 9.43572C9.53526 7.69695 8.61229 5.95819 7.04908 4.39393C4.60387 1.94978 2.50451 1.25912 1.5342 1.06358ZM19.6798 3.6549C19.5684 3.6549 19.4475 3.66856 19.3224 3.69589C18.9072 3.7863 18.2354 4.07014 17.3986 4.90693C16.2864 6.01915 15.6514 7.62861 15.2362 9.50404C16.7815 9.10247 18.1744 8.31298 19.3182 7.16922C20.7174 5.77001 20.9003 4.44333 20.3621 3.90509C20.197 3.74004 19.9616 3.6549 19.6798 3.6549ZM11.1437 10.6762C11.1679 10.8518 11.1899 11.0284 11.2057 11.2039C11.2845 11.9987 11.2793 12.7787 11.1973 13.5345C11.9963 13.4042 12.8246 13.3001 13.6709 13.2045C13.7666 12.3593 13.8717 11.5298 14.002 10.7298C13.2462 10.8129 12.4672 10.8171 11.6714 10.7393C11.4948 10.7224 11.3192 10.7014 11.1437 10.6762ZM9.899 14.7866C8.05406 15.2008 6.47297 15.8336 5.37442 16.9322C4.012 18.2936 3.89951 19.4236 4.37152 19.8946C4.91081 20.4339 6.2375 20.2499 7.63566 18.8518C8.62804 17.8594 9.44696 16.4318 9.899 14.7866ZM6.37626 29.9992C5.26089 30.0003 4.26957 29.5409 3.57048 28.8407C2.15971 27.43 2.39413 25.2286 3.48743 24.1353C4.02252 23.5992 4.64801 23.3007 5.29558 23.2712C5.95156 23.2439 6.59283 23.5046 7.09848 24.0102C8.03515 24.9458 7.82068 26.4018 7.26667 26.9548C7.07534 27.1472 6.76313 27.1472 6.57075 26.9548C6.37838 26.7624 6.37838 26.4502 6.57075 26.2578C6.73685 26.0917 6.94814 25.2528 6.40254 24.7072C6.09032 24.395 5.7203 24.2468 5.33975 24.2562C4.94237 24.2741 4.5429 24.4728 4.18337 24.8323C3.50952 25.5062 3.21515 27.0925 4.26745 28.1448C4.8162 28.6936 5.58889 29.0089 6.38468 29.0089C6.38573 29.0089 6.38679 29.0089 6.38784 29.0089C7.39388 29.0068 8.42201 28.5117 9.36077 27.574C12.4903 24.4423 13.0033 19.5456 13.4995 14.8107C13.5206 14.6089 13.5405 14.4081 13.5626 14.2084C12.6922 14.3083 11.8438 14.4207 11.0323 14.5616C10.6338 16.4549 9.71609 18.1642 8.33265 19.5487C6.46143 21.42 4.57338 21.4904 3.67456 20.5916C2.83987 19.7569 2.8262 18.0864 4.67745 16.2352C6.02936 14.8833 7.94052 14.1727 10.1334 13.728C10.3069 12.6978 10.3353 11.6065 10.1797 10.4996C7.89531 9.98761 5.72238 8.83546 4.16443 7.27856C0.523954 3.63808 0.469299 0.623094 0.469299 0.496945C0.469299 0.364486 0.519746 0.239379 0.613307 0.145818C0.705817 0.0543587 0.830922 0.00180945 0.961277 0.00180945C0.962328 0.00180945 0.96233 0.00180945 0.963381 0.00180945C1.08953 0.00180945 4.10557 0.0575183 7.74499 3.69799C9.28823 5.24123 10.433 7.38894 10.9513 9.64913C11.2225 9.69538 11.4948 9.73323 11.7671 9.75846C12.5965 9.83941 13.4049 9.82362 14.1849 9.71324C14.6296 7.50036 15.3413 5.57133 16.7016 4.20997C17.4985 3.41417 18.3321 2.90326 19.1132 2.73295C19.8922 2.5637 20.5828 2.73191 21.0591 3.20812C21.9568 4.10589 21.8874 5.99394 20.0152 7.86516C18.6317 9.24966 16.9214 10.1663 15.0291 10.5658C14.8872 11.3763 14.7757 12.2247 14.6759 13.0951C14.8756 13.0741 15.0764 13.0531 15.2772 13.032C20.012 12.5359 24.9098 12.0229 28.0404 8.89223C28.9792 7.95557 29.4743 6.92745 29.4743 5.92035C29.4754 5.1235 29.161 4.35082 28.6112 3.79996C28.0036 3.19339 27.3056 3.09459 26.8241 3.10721C26.2354 3.13033 25.653 3.36372 25.2998 3.71694C24.5765 4.4402 24.5282 5.28959 25.1737 5.93506C25.4722 6.23256 25.8422 6.28724 26.083 6.29039C26.4005 6.28724 26.6496 6.17896 26.7253 6.10327C26.9177 5.91089 27.2299 5.91089 27.4212 6.10327C27.6146 6.29564 27.6146 6.60785 27.4212 6.80023C27.1342 7.08828 26.6244 7.27014 26.0935 7.2754C25.4596 7.29642 24.8982 7.05255 24.4767 6.63205C23.4506 5.60603 23.5032 4.1206 24.6028 3.01994C25.6951 1.92664 27.8964 1.69222 29.3082 3.10405C30.7327 4.52849 31.1616 7.16502 28.7374 9.5892C25.3597 12.9679 20.2854 13.4988 15.3802 14.0118C15.1069 14.0402 14.8357 14.0696 14.5655 14.098C14.5361 14.3692 14.5077 14.6405 14.4793 14.9138C13.9652 19.8189 13.4344 24.8922 10.0567 28.2709C8.82252 29.5041 7.53264 29.9992 6.37626 29.9992Z" fill="#AB8C4C"/>
<path d="M58.9808 1.06777C58.0031 1.26961 55.8912 1.96871 53.467 4.39394C51.9027 5.9582 50.9808 7.69696 50.5445 9.43572C52.4914 8.92377 54.3206 7.91458 55.6546 6.58159C58.0788 4.15741 58.7779 2.04543 58.9808 1.06777ZM40.8352 3.65491C40.5534 3.65491 40.318 3.74005 40.1529 3.90509C39.6147 4.44333 39.7976 5.77001 41.1968 7.16923C42.3406 8.31298 43.7345 9.10247 45.2788 9.50299C44.8636 7.62862 44.2297 6.01916 43.1164 4.90693C42.2796 4.07014 41.6078 3.7863 41.1926 3.69589C41.0675 3.66856 40.9477 3.65491 40.8352 3.65491ZM46.8441 13.2045C47.6904 13.3001 48.5198 13.4042 49.3188 13.5345C49.2357 12.7787 49.2315 11.9987 49.3093 11.2039C49.3261 11.0284 49.3471 10.8518 49.3724 10.6762C49.1968 10.7014 49.0202 10.7224 48.8436 10.7393C48.0488 10.8171 47.2699 10.8129 46.513 10.7298C46.6433 11.5298 46.7484 12.3593 46.8441 13.2045ZM50.616 14.7866C51.068 16.4318 51.887 17.8594 52.8793 18.8518C54.2775 20.2499 55.6042 20.4339 56.1445 19.8946C56.6155 19.4236 56.503 18.2936 55.1406 16.9322C54.042 15.8336 52.4609 15.2008 50.616 14.7866ZM54.1387 29.9992C52.9834 29.9992 51.6935 29.5051 50.4583 28.2709C47.0807 24.8922 46.5508 19.8189 46.0357 14.9138C46.0073 14.6405 45.98 14.3692 45.9505 14.098C45.6793 14.0696 45.4081 14.0402 45.1358 14.0118C40.2296 13.4988 35.1563 12.9679 31.7776 9.5892C29.3534 7.16607 29.7823 4.5285 31.2078 3.10405C32.6186 1.69328 34.8189 1.92665 35.9122 3.01995C37.0128 4.12061 37.0643 5.60603 36.0394 6.63205C35.6168 7.05255 35.0291 7.29853 34.4215 7.2754C33.8906 7.27015 33.3808 7.08828 33.0938 6.80024C32.9014 6.60786 32.9014 6.29565 33.0938 6.10327C33.2862 5.91089 33.5973 5.91089 33.7908 6.10327C33.8654 6.17896 34.1146 6.28724 34.432 6.2904C34.6644 6.28829 35.0428 6.23256 35.3413 5.93506C35.9868 5.28959 35.9395 4.43915 35.2163 3.71694C34.5424 3.04309 32.9561 2.74872 31.9038 3.79997C31.0638 4.64097 30.2396 6.65833 32.4746 8.89224C35.6052 12.0229 40.503 12.5359 45.2378 13.032C45.4386 13.0531 45.6394 13.0741 45.8402 13.0951C45.7393 12.2247 45.6278 11.3763 45.487 10.5658C43.5937 10.1663 41.8843 9.24966 40.4998 7.86517C38.6276 5.99394 38.5582 4.10589 39.4559 3.20813C39.9321 2.73191 40.6228 2.56371 41.4028 2.73296C42.1829 2.90326 43.0165 3.41417 43.8134 4.20997C45.1747 5.57134 45.8854 7.50036 46.3301 9.71324C47.1101 9.82362 47.9195 9.83941 48.749 9.75847C49.0202 9.73324 49.2925 9.69539 49.5637 9.64913C50.082 7.38894 51.2268 5.24123 52.77 3.698C56.4094 0.0575223 59.4255 0.00181555 59.5516 0.00181555C59.6914 -0.0118502 59.8092 0.0533129 59.9027 0.145824C59.9952 0.239385 60.0468 0.36449 60.0457 0.495897C60.0457 0.623098 59.9911 3.63808 56.3506 7.27856C54.7926 8.83546 52.6197 9.98762 50.3364 10.4996C50.1797 11.6065 50.2092 12.6978 50.3826 13.728C52.5755 14.1727 54.4856 14.8833 55.8376 16.2352C57.6888 18.0864 57.6751 19.7569 56.8404 20.5916C55.9416 21.4914 54.0536 21.4189 52.1824 19.5487C50.7989 18.1642 49.8822 16.4549 49.4828 14.5616C48.6722 14.4207 47.8228 14.3083 46.9524 14.2084C46.9745 14.4081 46.9945 14.6089 47.0165 14.8107C47.5127 19.5456 48.0247 24.4423 51.1553 27.574C52.093 28.5117 53.1211 29.0068 54.1282 29.0089C54.1293 29.0089 54.1293 29.0089 54.1293 29.0089C54.9261 29.0089 55.6988 28.6936 56.2476 28.1448C57.2999 27.0925 57.0065 25.5062 56.3316 24.8323C55.9721 24.4728 55.5726 24.2741 55.1753 24.2562C54.7873 24.2499 54.4257 24.395 54.1135 24.7072C53.816 25.0047 53.7561 25.3663 53.7582 25.6165C53.7613 25.934 53.8686 26.1821 53.9453 26.2578C54.1366 26.4502 54.1366 26.7624 53.9453 26.9548C53.7519 27.1472 53.4397 27.1472 53.2483 26.9548C52.9603 26.6667 52.7784 26.1579 52.7721 25.626C52.7679 25.0047 52.995 24.4307 53.4165 24.0102C53.9222 23.5046 54.5645 23.2449 55.2194 23.2712C55.867 23.3007 56.4925 23.5992 57.0286 24.1354C58.1209 25.2286 58.3563 27.43 56.9445 28.8407C56.2454 29.5398 55.2541 29.9992 54.1387 29.9992Z" fill="#AB8C4C"/>
<path d="M55.3697 38.8328C54.7495 38.8328 53.856 39.1745 52.8793 40.15C51.887 41.1424 51.068 42.57 50.616 44.2163C52.4609 43.801 54.042 43.1682 55.1406 42.0707C56.0836 41.1277 56.5377 40.1606 56.3558 39.4836C56.2738 39.1745 56.0562 38.9642 55.7282 38.877C55.622 38.8486 55.5022 38.8328 55.3697 38.8328ZM47.7156 48.2068C48.0867 48.2068 48.4641 48.2258 48.8436 48.2626C49.0202 48.2794 49.1968 48.3004 49.3724 48.3256C49.3471 48.1501 49.3261 47.9734 49.3093 47.7979C49.2315 47.0031 49.2357 46.2231 49.3188 45.4673C48.5198 45.5976 47.6904 45.7017 46.8441 45.7974C46.7484 46.6436 46.6433 47.472 46.513 48.272C46.9082 48.2289 47.3088 48.2068 47.7156 48.2068ZM45.262 49.5703C43.6168 50.0223 42.1892 50.8402 41.1968 51.8326C40.012 53.0173 39.7619 54.0812 39.9227 54.6815C40.011 55.0094 40.2213 55.226 40.5303 55.3091C41.2084 55.4909 42.1734 55.0368 43.1164 54.0949C44.2149 52.9963 44.8468 51.4142 45.262 49.5703ZM50.5224 49.4757C50.9492 51.2439 51.8764 53.0163 53.467 54.6079C55.8912 57.0321 58.0031 57.7322 58.9808 57.934C58.779 56.9574 58.0788 54.8455 55.6546 52.4192C54.063 50.8297 52.2896 49.9025 50.5224 49.4757ZM59.5537 59H59.5527C59.4255 59 56.4094 58.9443 52.77 55.3038C51.2131 53.7469 50.0609 51.574 49.549 49.2896C48.4431 49.133 47.3508 49.1624 46.3206 49.3359C45.8749 51.5288 45.1642 53.4399 43.8134 54.7908C42.6023 56.0029 41.3135 56.538 40.2749 56.2615C39.6262 56.087 39.15 55.6045 38.9713 54.9359C38.6707 53.8142 39.2415 52.3939 40.4998 51.1367C41.8843 49.7522 43.5937 48.8365 45.487 48.436C45.6278 47.6255 45.7393 46.7771 45.8402 45.9067C45.6394 45.9277 45.4386 45.9487 45.2378 45.9698C40.503 46.4649 35.6052 46.9779 32.4746 50.1096C30.2396 52.3435 31.0638 54.3619 31.9038 55.2018C32.9571 56.2541 34.5424 55.9598 35.2163 55.2859C35.5747 54.9264 35.7745 54.5259 35.7923 54.1285C35.8102 53.7458 35.6536 53.379 35.3413 53.0668C34.7873 52.5117 33.9621 52.7261 33.7908 52.8985C33.5973 53.0899 33.2851 53.0909 33.0938 52.8985C32.9014 52.7051 32.9014 52.394 33.0938 52.2005C33.6467 51.6486 35.1048 51.4352 36.0394 52.3708C36.544 52.8765 36.8068 53.5156 36.7773 54.1727C36.7469 54.8202 36.4483 55.4457 35.9122 55.9819C34.8199 57.0752 32.6197 57.3096 31.2078 55.8988C29.7823 54.4744 29.3534 51.8357 31.7776 49.4126C35.1563 46.0349 40.2286 45.503 45.1358 44.99C45.4081 44.9616 45.6793 44.9322 45.9505 44.9038C45.98 44.6336 46.0073 44.3613 46.0357 44.0891C46.5508 39.1829 47.0807 34.1085 50.4583 30.7319C52.8835 28.3067 55.5201 28.7366 56.9445 30.1611C58.3563 31.5718 58.1209 33.7732 57.0286 34.8665C56.4925 35.4026 55.867 35.7012 55.2194 35.7306C54.5729 35.76 53.9222 35.4983 53.4165 34.9916C52.4809 34.057 52.6954 32.6 53.2473 32.047C53.4397 31.8547 53.7519 31.8547 53.9453 32.047C54.1366 32.2394 54.1366 32.5506 53.9453 32.744C53.7729 32.9164 53.5595 33.7406 54.1135 34.2956C54.4257 34.6068 54.7873 34.7571 55.1753 34.7456C55.5726 34.7288 55.9721 34.529 56.3316 34.1695C57.0065 33.4956 57.2999 31.9093 56.2476 30.857C55.6999 30.3083 54.9261 29.9939 54.1293 29.9939C54.1293 29.9939 54.1293 29.9939 54.1282 29.9939C53.1211 29.9939 52.093 30.4901 51.1553 31.4278C48.0247 34.5595 47.5127 39.4552 47.0165 44.1911C46.9945 44.3929 46.9745 44.5937 46.9524 44.7934C47.8228 44.6925 48.6722 44.5811 49.4828 44.4402C49.8822 42.5469 50.7989 40.8376 52.1824 39.4531C53.4407 38.1958 54.8631 37.6239 55.9826 37.9246C56.6512 38.1043 57.1337 38.5795 57.3072 39.2291C57.5858 40.2657 57.0496 41.5556 55.8376 42.7666C54.4856 44.1175 52.5755 44.8292 50.3826 45.2738C50.2092 46.3051 50.1797 47.3963 50.3364 48.5022C52.6197 49.0142 54.7937 50.1664 56.3506 51.7233C59.9911 55.3637 60.0457 58.3787 60.0457 58.5059C60.0468 58.6373 59.9952 58.7635 59.9027 58.856C59.8102 58.9475 59.6851 59 59.5537 59Z" fill="#AB8C4C"/>
<path d="M5.72975 38.8265C5.39966 38.8265 5.13158 38.9264 4.95076 39.1062C4.72054 39.3374 4.6459 39.7064 4.74156 40.1458C4.83302 40.5621 5.11581 41.2328 5.95366 42.0707C7.06588 43.1829 8.67429 43.8168 10.5487 44.2321C10.1492 42.6878 9.35971 41.2938 8.21595 40.15C7.28454 39.2197 6.38573 38.8265 5.72975 38.8265ZM11.7755 45.4673C11.8596 46.2231 11.8627 47.0031 11.786 47.7979C11.7692 47.9734 11.7471 48.1501 11.7229 48.3256C11.8995 48.3004 12.0751 48.2794 12.2517 48.2626C13.0454 48.1848 13.8254 48.1889 14.5813 48.272C14.4509 47.472 14.3468 46.6436 14.2512 45.7974C13.4049 45.7017 12.5755 45.5976 11.7755 45.4673ZM15.8333 49.5703C16.2475 51.4142 16.8793 52.9963 17.9779 54.0949C18.8157 54.9317 19.4854 55.2155 19.9017 55.3059C20.3432 55.4026 20.7111 55.3269 20.9424 55.0967C21.4806 54.5595 21.2977 53.2318 19.8985 51.8326C18.9061 50.8402 17.4775 50.0223 15.8333 49.5703ZM10.4824 49.4978C8.74368 49.9351 7.00387 50.857 5.44066 52.4192C2.99651 54.8644 2.30582 56.9637 2.11028 57.9351C3.08479 57.7354 5.19993 57.0363 7.62832 54.6079C8.9613 53.2749 9.97154 51.4447 10.4824 49.4978ZM1.54052 59C1.41016 59 1.28506 58.9475 1.19255 58.856C1.09898 58.7635 1.04749 58.6373 1.04749 58.5049C1.04854 58.3787 1.10424 55.3637 4.74367 51.7233C6.2869 50.18 8.43567 49.0352 10.6948 48.5169C10.7421 48.2457 10.7789 47.9745 10.8062 47.7022C10.8861 46.8738 10.8693 46.0633 10.76 45.2833C8.54604 44.8397 6.61806 44.128 5.25669 42.7666C4.45984 41.9708 3.94998 41.1372 3.77968 40.3561C3.61043 39.5771 3.77863 38.8854 4.25485 38.4102C5.15261 37.5125 7.04171 37.5829 8.91189 39.4531C10.2953 40.8376 11.212 42.5469 11.6125 44.4402C12.4231 44.5811 13.2714 44.6925 14.1408 44.7934C14.1208 44.5937 14.0998 44.3929 14.0788 44.1921C13.5826 39.4562 13.0706 34.5595 9.93896 31.4278C9.00125 30.4901 7.97312 29.9939 6.96708 29.9939C6.96602 29.9939 6.96497 29.9939 6.96497 29.9939C6.16707 29.9939 5.39544 30.3083 4.84774 30.857C3.79544 31.9093 4.08981 33.4956 4.76366 34.1695C5.12214 34.529 5.52266 34.7288 5.92004 34.7456C6.30164 34.755 6.66956 34.6068 6.98178 34.2956C7.27929 33.9981 7.33922 33.6365 7.33712 33.3863C7.33396 33.0688 7.22568 32.8197 7.14999 32.744C6.95761 32.5506 6.95761 32.2394 7.14999 32.047C7.34342 31.8547 7.65458 31.8547 7.84696 32.047C8.135 32.3351 8.31582 32.8439 8.32107 33.3758C8.32738 33.9971 8.09927 34.5711 7.67877 34.9916C7.17312 35.4972 6.54131 35.7621 5.87481 35.7306C5.2283 35.7012 4.60281 35.4026 4.06562 34.8665C2.97337 33.7732 2.74 31.5718 4.15078 30.1611C5.57417 28.7366 8.21174 28.3067 10.6349 30.7319C14.0136 34.1085 14.5445 39.1829 15.0585 44.0891C15.0869 44.3613 15.1153 44.6336 15.1447 44.9038C15.4149 44.9322 15.6861 44.9616 15.9595 44.99C20.8656 45.503 25.939 46.0349 29.3177 49.4126C31.7419 51.8357 31.3119 54.4744 29.8875 55.8988C28.4767 57.3096 26.2754 57.0752 25.1821 55.9819C24.647 55.4457 24.3474 54.8202 24.3179 54.1727C24.2885 53.5156 24.5513 52.8765 25.0559 52.3708C25.4722 51.9545 26.0367 51.7264 26.6486 51.7264C26.657 51.7264 26.6654 51.7264 26.6727 51.7264C27.2036 51.7317 27.7135 51.9135 28.0005 52.2016C28.1939 52.394 28.1939 52.7051 28.0005 52.8985C27.8081 53.0909 27.4969 53.0909 27.3045 52.8985C27.2289 52.8229 26.9797 52.7156 26.6633 52.7114C26.4225 52.6967 26.0525 52.7682 25.7529 53.0668C25.4407 53.379 25.2851 53.7458 25.303 54.1285C25.3208 54.5259 25.5206 54.9264 25.878 55.2859C26.5539 55.9598 28.1392 56.2531 29.1905 55.2018C29.7403 54.652 30.0557 53.8794 30.0546 53.0804C30.0535 52.0744 29.5574 51.0462 28.6207 50.1096C25.489 46.9779 20.5923 46.4649 15.8575 45.9698C15.6556 45.9487 15.4548 45.9277 15.2551 45.9067C15.356 46.7771 15.4675 47.6255 15.6083 48.436C17.5016 48.8355 19.211 49.7522 20.5955 51.1367C22.4667 53.0079 22.5371 54.8959 21.6383 55.7937C21.1621 56.2699 20.4725 56.4402 19.6924 56.2689C18.9113 56.0986 18.0777 55.5876 17.2819 54.7908C15.93 53.4399 15.2194 51.5288 14.7747 49.3359C13.7434 49.1635 12.6522 49.133 11.5463 49.2896C11.0333 51.574 9.88218 53.7469 8.32423 55.3038C4.6848 58.9443 1.66982 59 1.54262 59C1.54262 59 1.54157 59 1.54052 59Z" fill="#AB8C4C"/>
<path d="M29.3924 31.0775C29.1741 30.75 28.9876 30.509 28.833 30.3544C28.6875 30.1997 28.5101 30.0815 28.3009 29.9996C28.0917 29.9178 27.8052 29.8677 27.4413 29.8495L26.5818 29.795V35.0478C26.5818 35.7028 26.6364 36.1848 26.7455 36.4941C26.8638 36.8034 27.0184 37.008 27.2094 37.1081C27.4095 37.2081 27.7051 37.29 28.0962 37.3537C28.3782 37.3991 28.6284 37.4492 28.8467 37.5037C29.065 37.5583 29.2924 37.6447 29.5289 37.763L29.5016 38.4725H20.865L20.8377 37.763C21.0833 37.6265 21.3107 37.531 21.5199 37.4765C21.7382 37.4128 21.9883 37.3582 22.2703 37.3127C22.6342 37.2582 22.9025 37.1808 23.0753 37.0808C23.2572 36.9716 23.3982 36.7397 23.4983 36.3849C23.5983 36.0302 23.6483 35.4663 23.6483 34.6931V24.3511C23.6483 23.7052 23.5938 23.2232 23.4846 22.9048C23.3755 22.5774 23.2163 22.3545 23.0071 22.2363C22.807 22.1089 22.4886 21.977 22.052 21.8406C21.5881 21.7132 21.1834 21.5723 20.8377 21.4176L20.865 20.7081H27.1548C28.8558 20.7081 30.3429 20.7855 31.6164 20.9401C32.8898 21.0947 34.0268 21.504 35.0273 22.168C36.037 22.832 36.5418 23.8553 36.5418 25.2379C36.5418 26.0929 36.3008 26.8342 35.8187 27.4619C35.3457 28.0804 34.7317 28.567 33.9768 28.9218C33.2309 29.2765 32.4304 29.5175 31.5754 29.6449C31.6846 29.7904 32.2258 30.5454 33.1991 31.9098C33.9176 32.9285 34.5271 33.779 35.0273 34.4612C35.5367 35.1434 36.0415 35.7846 36.5418 36.3849C36.842 36.7033 37.1103 36.9534 37.3468 37.1354C37.5833 37.3173 37.8789 37.4628 38.2336 37.572C38.5884 37.6811 39.0341 37.7357 39.5707 37.7357V38.4997C38.6702 38.718 37.8698 38.8272 37.1694 38.8272C36.2053 38.8272 35.3184 38.5316 34.5089 37.9403C33.7084 37.3491 33.0126 36.6487 32.4214 35.8392C31.8392 35.0297 31.1707 33.9973 30.4157 32.742C29.97 31.978 29.6289 31.4231 29.3924 31.0775ZM27.264 28.8808C28.4282 28.8808 29.4333 28.8126 30.2793 28.6762C31.1252 28.5397 31.8483 28.2168 32.4486 27.7074C33.0581 27.1981 33.3628 26.4295 33.3628 25.4016C33.3628 24.2737 33.0353 23.4415 32.3804 22.9048C31.7346 22.3681 30.9751 22.0407 30.1019 21.9224C29.2287 21.7951 28.1554 21.7314 26.8819 21.7314H26.5818V28.8808H27.264Z" fill="white"/>
</svg>
